<svg xmlns="http://www.w3.org/2000/svg" viewBox="0 0 48 36" shape-rendering="crispEdges" role="img" aria-label="Jordan's front-yard shelf pixel art">
  <rect width="48" height="36" fill="#b8d4f0"/>
  <rect x="0" y="27" width="48" height="9" fill="#7ec87e"/>
  <rect x="8" y="26" width="32" height="2" fill="#5a9e5a"/>
  <rect x="21" y="22" width="6" height="6" fill="#8b5e34"/>
  <rect x="19" y="28" width="10" height="2" fill="#5c3d1e"/>
  <rect x="12" y="14" width="24" height="10" fill="#4a7ab5"/>
  <rect x="10" y="12" width="28" height="3" fill="#305680"/>
  <rect x="14" y="16" width="20" height="6" fill="#e8f0f8"/>
  <rect x="15" y="17" width="3" height="4" fill="#4d7c61"/>
  <rect x="19" y="17" width="3" height="4" fill="#d27842"/>
  <rect x="23" y="17" width="3" height="4" fill="#305680"/>
  <rect x="27" y="17" width="3" height="4" fill="#bd6235"/>
  <rect x="31" y="17" width="2" height="4" fill="#4d7c61"/>
  <rect x="4" y="20" width="4" height="6" fill="#6b9e4a"/>
  <rect x="40" y="21" width="4" height="5" fill="#6b9e4a"/>
  <rect x="2" y="6" width="5" height="3" fill="#ffffff" opacity="0.65"/>
  <rect x="38" y="4" width="6" height="4" fill="#ffffff" opacity="0.5"/>
</svg>
