<svg xmlns="http://www.w3.org/2000/svg" viewBox="0 0 48 36" shape-rendering="crispEdges" role="img" aria-label="My little library pixel art">
  <rect width="48" height="36" fill="#d4e8f0"/>
  <rect x="0" y="28" width="48" height="8" fill="#8fbc8f"/>
  <rect x="0" y="30" width="48" height="2" fill="#6fa86a"/>
  <rect x="22" y="24" width="4" height="6" fill="#8b5e34"/>
  <rect x="20" y="30" width="8" height="2" fill="#6b4423"/>
  <rect x="14" y="16" width="20" height="10" fill="#e8c49a"/>
  <rect x="12" y="14" width="24" height="4" fill="#4d7c61"/>
  <rect x="10" y="12" width="28" height="2" fill="#3f6650"/>
  <rect x="16" y="18" width="16" height="6" fill="#f5f0e8"/>
  <rect x="17" y="19" width="2" height="4" fill="#6c9fce"/>
  <rect x="20" y="19" width="2" height="4" fill="#bd6235"/>
  <rect x="23" y="19" width="2" height="4" fill="#4d7c61"/>
  <rect x="26" y="19" width="2" height="4" fill="#9c4f2d"/>
  <rect x="29" y="19" width="2" height="4" fill="#6c9fce"/>
  <rect x="22" y="10" width="4" height="2" fill="#d27842"/>
  <rect x="6" y="22" width="3" height="3" fill="#7cb868"/>
  <rect x="39" y="23" width="3" height="3" fill="#7cb868"/>
  <rect x="4" y="8" width="6" height="4" fill="#ffffff" opacity="0.7"/>
</svg>
