<svg xmlns="http://www.w3.org/2000/svg" viewBox="0 0 48 36" shape-rendering="crispEdges" role="img" aria-label="Riley's little library pixel art">
  <rect width="48" height="36" fill="#f0e8d8"/>
  <rect x="0" y="27" width="48" height="9" fill="#a8c878"/>
  <rect x="20" y="22" width="8" height="7" fill="#9a7048"/>
  <rect x="18" y="29" width="12" height="2" fill="#6b4e2e"/>
  <rect x="13" y="13" width="22" height="11" fill="#6a9a68"/>
  <rect x="11" y="11" width="26" height="3" fill="#4d7c61"/>
  <rect x="15" y="15" width="18" height="7" fill="#faf6ee"/>
  <rect x="16" y="16" width="3" height="5" fill="#bd6235"/>
  <rect x="20" y="16" width="3" height="5" fill="#6c9fce"/>
  <rect x="24" y="16" width="3" height="5" fill="#4d7c61"/>
  <rect x="28" y="16" width="3" height="5" fill="#9c4f2d"/>
  <rect x="23" y="7" width="2" height="3" fill="#d27842"/>
  <rect x="5" y="21" width="4" height="5" fill="#8fbc8f"/>
  <rect x="39" y="22" width="4" height="4" fill="#8fbc8f"/>
  <rect x="34" y="6" width="8" height="5" fill="#ffffff" opacity="0.55"/>
  <rect x="3" y="4" width="7" height="4" fill="#ffffff" opacity="0.45"/>
</svg>
