<svg xmlns="http://www.w3.org/2000/svg" viewBox="0 0 48 36" shape-rendering="crispEdges" role="img" aria-label="Sam's sidewalk shelf pixel art">
  <rect width="48" height="36" fill="#e8e0f0"/>
  <rect x="0" y="30" width="48" height="6" fill="#b0a0c0"/>
  <rect x="0" y="31" width="48" height="2" fill="#9080a8"/>
  <rect x="2" y="28" width="44" height="2" fill="#c8c0d8"/>
  <rect x="19" y="21" width="10" height="9" fill="#8b5e34"/>
  <rect x="17" y="30" width="14" height="2" fill="#5c3d1e"/>
  <rect x="11" y="12" width="26" height="11" fill="#7a6a9a"/>
  <rect x="9" y="10" width="30" height="3" fill="#5a4a7a"/>
  <rect x="13" y="14" width="22" height="7" fill="#f8f4fc"/>
  <rect x="14" y="15" width="3" height="5" fill="#4d7c61"/>
  <rect x="18" y="15" width="3" height="5" fill="#d27842"/>
  <rect x="22" y="15" width="3" height="5" fill="#6c9fce"/>
  <rect x="26" y="15" width="3" height="5" fill="#bd6235"/>
  <rect x="30" y="15" width="3" height="5" fill="#4d7c61"/>
  <rect x="22" y="6" width="4" height="3" fill="#d27842"/>
  <rect x="0" y="32" width="6" height="1" fill="#ffffff" opacity="0.4"/>
  <rect x="42" y="32" width="6" height="1" fill="#ffffff" opacity="0.4"/>
</svg>
